<?xml version="1.0" encoding="UTF-8"?>
<svg version="1.1" xmlns="http://www.w3.org/2000/svg" width="2000" height="2000">
<path d="M0 0 C62.14570013 -1.14818846 129.4584857 18.56781349 179.4453125 56.125 C181.299195 57.45872842 183.15337492 58.79204349 185.0078125 60.125 C189.89744986 63.69793277 194.70710102 67.35377045 199.4453125 71.125 C200.28578125 71.79015625 201.12625 72.4553125 201.9921875 73.140625 C217.55497047 85.64482635 232.7334695 99.70717061 245.4453125 115.125 C246.08984375 115.88039063 246.734375 116.63578125 247.3984375 117.4140625 C267.02358911 140.78069984 283.21177632 166.69042164 295.35107422 194.64819336 C296.50964345 197.270613 297.72409532 199.8634858 298.9375 202.4609375 C320.20437152 249.21293674 325.90134066 304.47485148 319.4453125 355.125 C319.32704102 356.0958252 319.20876953 357.06665039 319.08691406 358.06689453 C314.08265521 397.99273071 301.77935806 436.89651627 284.4453125 473.125 C283.93774414 474.19766113 283.43017578 475.27032227 282.90722656 476.37548828 C272.38188064 498.4986365 260.11298837 519.78754357 246.4453125 540.125 C245.98125 540.81899902 245.5171875 541.51299805 245.0390625 542.22802734 C230.1163411 564.48362938 213.85595536 585.58712314 196.91308594 606.32519531 C195.63035118 607.89810294 194.35371837 609.47598284 193.078125 611.0546875 C184.51337036 621.6272967 175.54792616 631.86567481 166.41015625 641.9453125 C164.62704586 643.9233952 162.87516481 645.923558 161.1328125 647.9375 C157.50044505 652.10924452 153.74057136 656.15913274 149.98022461 660.21508789 C147.02139024 663.40890336 144.09136112 666.62388029 141.1953125 669.875 C129.32980926 683.0519536 116.97030484 695.70292642 104.4453125 708.25 C103.76555359 708.93234711 103.08579468 709.61469421 102.38543701 710.31771851 C88.92863205 723.81488861 88.92863205 723.81488861 82.99755859 728.78100586 C81.25553989 730.2893124 79.67092594 731.90565392 78.0703125 733.5625 C75.4453125 736.125 75.4453125 736.125 73.4453125 736.125 C73.4453125 736.785 73.4453125 737.445 73.4453125 738.125 C72.15234375 739.4296875 72.15234375 739.4296875 70.2578125 741 C66.44606981 744.23257331 62.78095045 747.58655015 59.1328125 751 C54.28129763 755.51753124 49.28576142 759.77194863 44.11328125 763.921875 C41.36141712 766.19427818 38.74793107 768.57194831 36.1328125 771 C31.52180841 775.24369793 26.72400014 779.12447004 21.77148438 782.953125 C17.79744469 786.03397661 13.94227856 789.21863749 10.1328125 792.5 C-14.34813571 813.46546606 -41.35888602 831.82567415 -68.21557617 849.57617188 C-68.98748291 850.08728516 -69.75938965 850.59839844 -70.5546875 851.125 C-71.62404541 851.67244873 -72.69340332 852.21989746 -73.79516602 852.78393555 C-76.93398668 854.95223079 -76.93398668 854.95223079 -77.29589844 858.94262695 C-77.32361726 860.49926661 -77.3191665 862.05668589 -77.2890625 863.61328125 C-77.29716446 864.45536636 -77.30526642 865.29745148 -77.31361389 866.16505432 C-77.32827674 867.97722649 -77.32977718 869.78954333 -77.31948853 871.60174561 C-77.29948556 875.43414934 -77.34720855 879.26475785 -77.39216614 883.09686279 C-77.41460791 885.03241706 -77.43395757 886.96800961 -77.45024109 888.90362549 C-77.9867812 948.17340201 -88.20967901 1008.73718675 -102.5546875 1066.125 C-102.84923828 1067.30980957 -103.14378906 1068.49461914 -103.44726562 1069.71533203 C-111.32059484 1101.06835739 -121.33732699 1131.81887995 -132.5546875 1162.125 C-133.20188035 1163.90232284 -133.8490189 1165.67966545 -134.49609375 1167.45703125 C-156.79273091 1227.98562078 -187.179985 1286.93523908 -223.32958984 1340.30712891 C-224.55728165 1342.12884935 -225.77103171 1343.95908617 -226.98046875 1345.79296875 C-238.17062763 1362.75189769 -250.12857065 1379.05133383 -262.5546875 1395.125 C-263.06918457 1395.79160645 -263.58368164 1396.45821289 -264.11376953 1397.14501953 C-273.86830367 1409.75684036 -283.84871269 1422.25104585 -294.62109375 1434.01171875 C-296.42356471 1435.98169206 -298.18227149 1437.98122056 -299.9296875 1440 C-304.20511011 1444.90157146 -308.60778402 1449.68563953 -313.02148438 1454.46240234 C-314.55287241 1456.12303172 -316.07726646 1457.78989298 -317.6015625 1459.45703125 C-324.86408444 1467.35896487 -332.35123761 1475.02739061 -339.9296875 1482.625 C-340.85692627 1483.55683105 -341.78416504 1484.48866211 -342.73950195 1485.44873047 C-347.30762764 1490.00658147 -351.91540001 1494.44456775 -356.83642578 1498.62109375 C-358.65915941 1500.2164389 -360.3589892 1501.8959238 -362.0546875 1503.625 C-365.7177205 1507.33709147 -369.60276098 1510.72522648 -373.5546875 1514.125 C-374.70759873 1515.12955742 -375.85988885 1516.13482791 -377.01171875 1517.140625 C-384.42123034 1523.60261896 -391.8939338 1529.96076562 -399.5546875 1536.125 C-400.69357422 1537.05119141 -400.69357422 1537.05119141 -401.85546875 1537.99609375 C-415.0491505 1548.66191042 -428.66251034 1558.76042893 -442.46484375 1568.62011719 C-444.41438126 1570.0239664 -446.3465744 1571.4480694 -448.2734375 1572.8828125 C-472.30812295 1590.67476593 -501.47138204 1602.36054129 -531.73730469 1598.16064453 C-554.08305739 1594.60991883 -573.98545442 1583.45654837 -587.86132812 1565.42724609 C-611.95300707 1531.86013909 -610.56023493 1492.39504527 -604.55859375 1453.30078125 C-596.64685611 1406.02522582 -579.37069633 1361.11365004 -558.90527344 1317.97753906 C-557.64279084 1315.31108089 -556.39645051 1312.63781622 -555.15625 1309.9609375 C-551.28662367 1301.64010795 -547.22199572 1293.45513989 -542.90869141 1285.35571289 C-538.45689619 1276.9883728 -534.13179825 1268.55724627 -529.8046875 1260.125 C-524.79230481 1250.3602208 -519.77258441 1240.59967222 -514.70947266 1230.86108398 C-506.47188291 1215.07382156 -506.47188291 1215.07382156 -498.5546875 1199.125 C-497.91031738 1197.79275391 -497.91031738 1197.79275391 -497.25292969 1196.43359375 C-488.72037215 1178.67838835 -481.35765671 1160.59650085 -474.5546875 1142.125 C-474.20035645 1141.16819336 -473.84602539 1140.21138672 -473.48095703 1139.22558594 C-450.97030152 1077.65266134 -446.26161052 1010.1274267 -474.125 949.42578125 C-481.73698248 933.4092157 -491.33443081 916.81930716 -504.3046875 904.45703125 C-505.5546875 903.125 -505.5546875 903.125 -505.5546875 901.125 C-506.2146875 901.125 -506.8746875 901.125 -507.5546875 901.125 C-509.76819558 899.0379781 -511.86806763 896.9070966 -513.875 894.62109375 C-526.73065669 880.65486986 -546.27566949 870.48770068 -564.28686523 865.15112305 C-566.3359375 864.51171875 -566.3359375 864.51171875 -569.5546875 863.125 C-570.5234375 860.95703125 -570.5234375 860.95703125 -570.5546875 859.125 C-560.57164957 858.44433832 -552.03517423 860.37203653 -542.5546875 863.125 C-541.58144531 863.39054687 -540.60820313 863.65609375 -539.60546875 863.9296875 C-524.82149036 868.35855406 -509.82679946 875.80212723 -497.5546875 885.125 C-496.97509277 885.56086426 -496.39549805 885.99672852 -495.79833984 886.44580078 C-479.82770989 898.56729002 -465.04661928 912.64031884 -453.5546875 929.125 C-452.88695312 930.07117187 -452.21921875 931.01734375 -451.53125 931.9921875 C-449.47052281 934.99775403 -447.49803077 938.04220119 -445.5546875 941.125 C-445.16812988 941.73794922 -444.78157227 942.35089844 -444.38330078 942.98242188 C-437.35258027 954.23826796 -431.6674927 965.88687534 -426.5546875 978.125 C-426.26609863 978.80884766 -425.97750977 979.49269531 -425.68017578 980.19726562 C-413.86112803 1008.58580518 -409.46739959 1039.5819548 -408.5546875 1070.125 C-408.53132324 1070.89585938 -408.50795898 1071.66671875 -408.48388672 1072.4609375 C-406.44050779 1152.95976473 -432.623174 1230.94131742 -456.91015625 1306.60546875 C-483.87350804 1382.8280211 -483.87350804 1382.8280211 -493.5546875 1462.125 C-484.61018407 1455.56908556 -475.9805609 1448.67612397 -467.40869141 1441.64257812 C-465.75814514 1440.29153841 -464.10186758 1438.94819337 -462.44140625 1437.609375 C-457.17535026 1433.34886011 -452.09652565 1428.94493164 -447.09375 1424.37890625 C-444.43573285 1422.01940487 -441.70076456 1419.78775885 -438.9296875 1417.5625 C-434.83676705 1414.25247292 -431.09688482 1410.78211239 -427.43359375 1407.0078125 C-425.62487279 1405.19533121 -423.75493269 1403.53290864 -421.8046875 1401.875 C-417.47986874 1398.17908915 -413.53233802 1394.13269486 -409.59082031 1390.03613281 C-408.28157417 1388.69614116 -406.92181069 1387.40588926 -405.5546875 1386.125 C-404.8946875 1386.125 -404.2346875 1386.125 -403.5546875 1386.125 C-403.1525 1385.1659375 -403.1525 1385.1659375 -402.7421875 1384.1875 C-401.5546875 1382.125 -401.5546875 1382.125 -398.5546875 1381.125 C-397.85751549 1379.80736067 -397.19459759 1378.47137933 -396.5546875 1377.125 C-394.9699707 1375.32910156 -394.9699707 1375.32910156 -393.10546875 1373.515625 C-392.07969727 1372.50628906 -392.07969727 1372.50628906 -391.03320312 1371.4765625 C-390.31841797 1370.78304688 -389.60363281 1370.08953125 -388.8671875 1369.375 C-384.09853089 1364.7256703 -379.49945391 1360.02941105 -375.15600586 1354.97802734 C-372.89436246 1352.36087939 -370.53730878 1349.84357991 -368.1796875 1347.3125 C-363.83144088 1342.61124815 -359.74197531 1337.75250666 -355.7265625 1332.76171875 C-353.61712401 1330.20079972 -351.42581102 1327.75376545 -349.1796875 1325.3125 C-344.6701823 1320.35751509 -340.56511557 1315.1445201 -336.4609375 1309.85546875 C-332.95902017 1305.34292296 -329.37710363 1300.89522891 -325.78979492 1296.45043945 C-317.64119571 1286.3136892 -310.12322966 1275.69676639 -302.5546875 1265.125 C-301.99185059 1264.34044434 -301.42901367 1263.55588867 -300.84912109 1262.74755859 C-291.5817298 1249.79357279 -282.9045666 1236.50832234 -274.40185547 1223.04199219 C-272.74717903 1220.42897684 -271.07884859 1217.82560277 -269.40234375 1215.2265625 C-256.58799707 1195.29407897 -245.09136813 1174.58049906 -233.92822266 1153.68847656 C-232.72368575 1151.44040732 -231.50817291 1149.19898607 -230.28515625 1146.9609375 C-226.20131246 1139.45851809 -222.4581928 1131.83708397 -218.84106445 1124.1003418 C-216.64041745 1119.39431356 -214.3649675 1114.74652833 -211.9921875 1110.125 C-208.88347738 1103.97234455 -206.18184496 1097.68889671 -203.57006836 1091.31054688 C-201.71229669 1086.79034485 -199.73811157 1082.34966351 -197.66015625 1077.92578125 C-194.44916981 1071.019464 -191.66397659 1063.98106205 -188.9296875 1056.875 C-188.00195454 1054.47320245 -187.07230799 1052.07214305 -186.140625 1049.671875 C-185.7389209 1048.62870117 -185.3372168 1047.58552734 -184.92333984 1046.51074219 C-183.86979431 1043.90450432 -182.76340241 1041.35841071 -181.60131836 1038.80102539 C-179.54213266 1034.20329722 -177.84884014 1029.52709944 -176.22265625 1024.76171875 C-175.61120716 1022.99135926 -174.99971522 1021.22101457 -174.38818359 1019.45068359 C-173.92964996 1018.11671539 -173.92964996 1018.11671539 -173.46185303 1016.75579834 C-172.60695513 1014.2765772 -171.74271261 1011.80090626 -170.87353516 1009.32666016 C-158.36926077 973.72722656 -147.62111397 937.75099391 -138.5546875 901.125 C-138.25224121 899.92020996 -137.94979492 898.71541992 -137.63818359 897.47412109 C-133.87069694 882.45440764 -130.47898794 867.40682258 -127.59521484 852.19506836 C-124.02605623 833.59066918 -124.02605623 833.59066918 -118.5546875 825.625 C-117.74526888 824.41939402 -116.93808251 823.21228719 -116.1328125 822.00390625 C-115.71064453 821.37500488 -115.28847656 820.74610352 -114.85351562 820.09814453 C-112.57889777 816.64260666 -110.44753207 813.10069423 -108.3046875 809.5625 C-100.35280325 796.48631847 -92.28489713 783.48163043 -84.1796875 770.5 C-83.81157959 769.91009277 -83.44347168 769.32018555 -83.06420898 768.71240234 C-77.26979453 759.44805438 -71.35665702 750.26424074 -65.3671875 741.125 C-60.11971183 733.10029068 -54.94171694 725.03712001 -49.83984375 716.91918945 C-45.23308234 709.59428317 -40.53087038 702.33314133 -35.81884766 695.07568359 C-33.88888487 692.09762205 -31.97144747 689.11156954 -30.0546875 686.125 C-21.74146184 673.18183357 -13.36519378 660.2802201 -4.94482422 647.40649414 C-0.76593684 641.00978982 3.35160543 634.576468 7.4453125 628.125 C22.81587055 603.97807987 22.81587055 603.97807987 28.6953125 595.25 C33.90971524 587.50496648 38.85972705 579.59817235 43.82714844 571.69335938 C46.64327802 567.22358219 49.48209517 562.76827238 52.3203125 558.3125 C52.90377441 557.3961377 53.48723633 556.47977539 54.08837891 555.53564453 C56.47057023 551.79462982 58.8534716 548.05406759 61.23632812 544.31347656 C64.7584338 538.78396312 68.27787357 533.25276853 71.79443359 527.71972656 C73.34833104 525.27742812 74.90625537 522.83774386 76.46484375 520.3984375 C121.38515776 449.91743131 175.21159199 363.22782716 156.3203125 276 C145.22337501 228.91560197 113.46600282 186.47359389 72.6875 160.71875 C68.98764219 158.436044 65.22525945 156.27156258 61.4453125 154.125 C60.8584668 153.7837207 60.27162109 153.44244141 59.66699219 153.09082031 C15.10009961 127.26031408 -38.38927194 124.65345301 -87.5546875 137.125 C-114.78757612 144.44912708 -141.44539616 153.95859048 -167.796875 163.94921875 C-208.26569662 179.28165593 -248.6583918 191.93391992 -291.5546875 198.125 C-292.83085938 198.31400879 -292.83085938 198.31400879 -294.1328125 198.50683594 C-310.727681 200.91738365 -327.80228255 201.53679096 -344.5546875 201.125 C-345.30991699 201.11243164 -346.06514648 201.09986328 -346.84326172 201.08691406 C-401.03177968 200.07055526 -453.67194208 185.22416347 -501.5546875 160.125 C-502.48224854 159.66029297 -503.40980957 159.19558594 -504.36547852 158.71679688 C-505.08791748 158.19150391 -505.81035645 157.66621094 -506.5546875 157.125 C-506.5546875 155.805 -506.5546875 154.485 -506.5546875 153.125 C-502.70047932 153.26974807 -498.84632701 153.41593527 -494.9921875 153.5625 C-493.81793213 153.60689209 -492.64367676 153.65128418 -491.43383789 153.69702148 C-485.72303632 153.9156186 -480.01330885 154.14406014 -474.3046875 154.4140625 C-472.83237671 154.48282593 -472.83237671 154.48282593 -471.33032227 154.55297852 C-469.52335533 154.63862486 -467.71652847 154.72732063 -465.90991211 154.82006836 C-452.00706072 155.4744596 -438.12889972 155.20186612 -424.2421875 154.375 C-423.51579071 154.33209839 -422.78939392 154.28919678 -422.04098511 154.24499512 C-379.79280348 151.67590711 -339.4592237 141.68373099 -300.5546875 125.125 C-299.63896973 124.73666992 -298.72325195 124.34833984 -297.77978516 123.94824219 C-287.55255206 119.57501233 -277.76408687 114.75292849 -268.14453125 109.171875 C-265.03016549 107.37154943 -261.85743984 105.75266938 -258.6171875 104.1875 C-244.12133713 97.06707553 -230.53796346 88.06765998 -216.90283203 79.44873047 C-201.96759618 70.01581499 -186.88296904 60.90538738 -171.5546875 52.125 C-170.78656738 51.68430176 -170.01844727 51.24360352 -169.22705078 50.78955078 C-164.69171174 48.19393179 -160.13445435 45.64134249 -155.5546875 43.125 C-154.8951709 42.76100098 -154.2356543 42.39700195 -153.55615234 42.02197266 C-105.71296059 15.73838242 -54.45346555 1.91484714 0 0 Z " fill="#155dfc" transform="translate(1481.5546875,263.875)"/>
<path d="M0 0 C63.74549167 -1.09787714 131.62422758 13.9854138 179.328125 58.41015625 C181.14783194 60.18063939 181.14783194 60.18063939 183.25390625 61.125 C183.25390625 61.785 183.25390625 62.445 183.25390625 63.125 C184.1512146 63.53093384 184.1512146 63.53093384 185.06665039 63.94506836 C187.23628751 65.11549544 188.5655107 66.22553752 190.25 68.00390625 C190.80204102 68.58664307 191.35408203 69.16937988 191.92285156 69.76977539 C192.50647461 70.40262451 193.09009766 71.03547363 193.69140625 71.6875 C194.61131348 72.68027954 194.61131348 72.68027954 195.54980469 73.69311523 C202.30999824 81.10973087 208.32480634 89.03914818 214.25390625 97.125 C214.69686035 97.72135254 215.13981445 98.31770508 215.59619141 98.93212891 C225.79580389 112.67398099 234.80372024 127.23822368 243.15087891 142.16796875 C244.40396452 144.39123884 245.67725226 146.60222898 246.953125 148.8125 C252.40096907 158.26158547 257.71515204 167.76744906 262.87890625 177.375 C268.11344998 187.10104024 273.54192487 196.67229169 279.25390625 206.125 C279.70507812 206.87507324 280.15625 207.62514648 280.62109375 208.39794922 C291.11470063 225.82327915 302.35444654 242.36162355 315.25390625 258.125 C316.02863281 259.08664062 316.80335938 260.04828125 317.6015625 261.0390625 C323.04575837 267.70240573 328.86041664 273.91238839 334.94140625 280 C335.64193115 280.70133057 336.34245605 281.40266113 337.06420898 282.12524414 C345.05372897 290.03021895 353.46907294 296.95248213 362.6015625 303.49414062 C363.33246094 304.03619141 364.06335937 304.57824219 364.81640625 305.13671875 C365.47769531 305.61584717 366.13898437 306.09497559 366.8203125 306.58862305 C368.25390625 308.125 368.25390625 308.125 368.25390625 312.125 C362.53848944 311.56114722 357.43385933 310.47481137 352.00390625 308.625 C350.84979248 308.23405151 350.84979248 308.23405151 349.67236328 307.83520508 C317.44266746 296.58497215 289.70718188 277.53983859 264.25390625 255.125 C263.46113281 254.43277344 262.66835938 253.74054688 261.8515625 253.02734375 C260.56241727 251.90150675 259.27565289 250.7729328 257.9921875 249.640625 C256.79334346 248.59534076 255.58147512 247.5648718 254.359375 246.546875 C250.86936957 243.63731258 248.0377681 240.74402041 245.25390625 237.125 C243.60125623 235.44443359 241.93272901 233.77942126 240.25390625 232.125 C235.04521121 226.99167193 229.91073986 221.86855013 225.15625 216.30859375 C223.24675927 214.11679638 221.28324803 211.98115136 219.3059082 209.85058594 C214.47445146 204.64302777 209.89080117 199.3092574 205.43359375 193.7734375 C202.56210846 190.28442849 199.52147309 186.96629539 196.4765625 183.62890625 C194.29184575 181.16774029 192.23891201 178.63839434 190.19140625 176.0625 C183.65923284 168.01068903 176.445655 160.5848876 169.25390625 153.125 C168.57312012 152.41553223 167.89233398 151.70606445 167.19091797 150.97509766 C158.4324032 141.88448657 149.5033599 133.50920022 139.25390625 126.125 C138.67350586 125.70025391 138.09310547 125.27550781 137.49511719 124.83789062 C114.79685781 108.37760599 89.9414493 100.77044092 62.25390625 98.125 C61.55942383 98.05442383 60.86494141 97.98384766 60.14941406 97.91113281 C6.07851109 92.6243244 -52.23247525 101.56947026 -95.62109375 136.1875 C-96.72312976 137.09447705 -97.82472831 138.00198603 -98.92578125 138.91015625 C-101.18809335 140.68679193 -103.12203797 142.00312108 -105.74609375 143.125 C-105.74609375 143.785 -105.74609375 144.445 -105.74609375 145.125 C-107.07421875 146.39453125 -107.07421875 146.39453125 -108.99609375 147.9375 C-167.78397427 198.23839777 -193.94832178 293.7730792 -200.03149414 367.58813477 C-200.97230503 381.63224341 -200.94646321 395.67938799 -200.93359375 409.75 C-200.93317959 410.40810669 -200.93276543 411.06621338 -200.93233871 411.7442627 C-200.91726553 430.88335113 -200.7706452 449.8795489 -198.95184326 468.94433594 C-198.72385413 471.36070964 -198.50620282 473.77789638 -198.28955078 476.1953125 C-196.36974833 497.504304 -194.14670969 518.77933005 -191.74609375 540.0390625 C-191.65895237 540.81092644 -191.57181099 541.58279037 -191.48202896 542.37804413 C-190.61484724 550.0508704 -189.74138628 557.7229343 -188.85268307 565.3932991 C-184.12552645 606.22102787 -180.5879618 646.86983859 -180.49609375 688 C-180.48819321 689.78881592 -180.48819321 689.78881592 -180.48013306 691.61376953 C-180.30241828 743.63361557 -189.17385415 793.13943463 -202.74609375 843.125 C-202.92489075 843.78667175 -203.10368774 844.44834351 -203.28790283 845.13006592 C-210.47513133 871.69718713 -218.83028603 897.92279268 -227.0625 924.1796875 C-228.62414953 929.16131694 -230.18542997 934.14306164 -231.74609375 939.125 C-231.94467735 939.75870388 -232.14326096 940.39240776 -232.34786224 941.04531479 C-236.99430724 955.87587025 -241.63686799 970.69770565 -245.74609375 985.6875 C-245.94753998 986.41805603 -246.14898621 987.14861206 -246.35653687 987.90130615 C-259.96107197 1037.30326398 -268.50044689 1085.97357863 -271.74609375 1137.125 C-271.79521912 1137.87858795 -271.84434448 1138.6321759 -271.8949585 1139.40859985 C-272.89794534 1155.19965 -272.98987534 1170.99386247 -272.99609375 1186.8125 C-272.99668289 1187.50283073 -272.99727203 1188.19316147 -272.99787903 1188.90441132 C-273.0157138 1218.70965191 -271.84571856 1248.38997063 -269.74609375 1278.125 C-269.67348328 1279.1537323 -269.6008728 1280.1824646 -269.52606201 1281.24237061 C-263.21932455 1369.27354637 -248.37914705 1456.16655959 -214.74609375 1538.125 C-214.41512695 1538.93630371 -214.08416016 1539.74760742 -213.74316406 1540.58349609 C-209.75648262 1550.28065308 -205.03841814 1559.52013778 -200.078125 1568.75 C-197.88344768 1572.83532219 -195.80108753 1576.96777121 -193.74609375 1581.125 C-172.29117975 1554.16225733 -164.27495988 1510.20783657 -157.74609375 1477.125 C-157.61908081 1476.48802185 -157.49206787 1475.8510437 -157.36120605 1475.19476318 C-153.18976985 1454.26004854 -149.77928791 1433.22466447 -146.55859375 1412.125 C-143.22943698 1390.31939794 -139.71107459 1368.55372228 -136.00329208 1346.80944824 C-135.62956858 1344.61232364 -135.25851744 1342.41476494 -134.88833618 1340.21704102 C-130.43401082 1313.80520666 -125.35053497 1287.4836374 -118.80859375 1261.5 C-118.64689697 1260.85585144 -118.4852002 1260.21170288 -118.31860352 1259.54803467 C-108.38241929 1220.21034231 -90.850378 1185.47001388 -63.74609375 1155.125 C-62.9778125 1154.24714844 -62.20953125 1153.36929687 -61.41796875 1152.46484375 C-35.3040156 1122.92685828 0.22553904 1098.12043643 40.25390625 1093.125 C41.49333984 1092.96064453 41.49333984 1092.96064453 42.7578125 1092.79296875 C74.86101611 1089.20468221 113.05519212 1096.21810305 139.25390625 1116.125 C139.58390625 1117.115 139.91390625 1118.105 140.25390625 1119.125 C135.05901665 1120.94851227 130.8588831 1119.02417647 125.87890625 1117.375 C92.25517932 1106.76776968 56.11470871 1106.82045052 24.25390625 1123.125 C5.7404857 1133.24426737 -11.00131996 1147.3108423 -23.74609375 1164.125 C-24.15504883 1164.64835937 -24.56400391 1165.17171875 -24.98535156 1165.7109375 C-43.42839299 1189.32246462 -57.10069793 1215.88307777 -63.74609375 1245.125 C-63.92833496 1245.89908203 -64.11057617 1246.67316406 -64.29833984 1247.47070312 C-75.88514289 1297.7199257 -76.59758185 1351.08327232 -80.14974976 1402.39364243 C-92.91320688 1586.71004019 -92.91320688 1586.71004019 -136.74609375 1640.125 C-137.1735791 1640.65125977 -137.60106445 1641.17751953 -138.04150391 1641.71972656 C-150.00889505 1656.2544091 -166.90008245 1667.22516483 -185.74609375 1670.125 C-206.0051257 1671.91967066 -224.37039608 1667.66899341 -240.55859375 1654.75 C-242.3048675 1653.22773804 -244.03506868 1651.68677677 -245.74609375 1650.125 C-246.49117188 1649.47273438 -247.23625 1648.82046875 -248.00390625 1648.1484375 C-259.92114127 1637.08548456 -267.99897917 1622.46373434 -275.58447266 1608.27001953 C-277.02078632 1605.61775979 -278.52364927 1603.00762657 -280.03173828 1600.39575195 C-313.18825594 1542.69508865 -333.01983663 1477.90726636 -346.74609375 1413.125 C-346.89840454 1412.40683105 -347.05071533 1411.68866211 -347.2076416 1410.94873047 C-351.67268623 1389.80231892 -354.95332972 1368.5466081 -357.74609375 1347.125 C-357.93147705 1345.72797852 -357.93147705 1345.72797852 -358.12060547 1344.30273438 C-358.8194312 1338.91967868 -359.33023908 1333.5368999 -359.74609375 1328.125 C-359.87927002 1326.4541333 -359.87927002 1326.4541333 -360.01513672 1324.74951172 C-366.04420399 1245.94462067 -361.02615963 1163.60589259 -338.44580078 1087.54394531 C-337.63296605 1084.73390816 -336.87485101 1081.91134551 -336.1171875 1079.0859375 C-326.67796157 1044.2973918 -312.95222973 1011.1937741 -298.74609375 978.125 C-298.42838013 977.38513855 -298.1106665 976.6452771 -297.7833252 975.88299561 C-294.29477693 967.76515263 -290.77419337 959.66146712 -287.24316406 951.56201172 C-274.25482963 921.74306648 -261.6314813 891.78477377 -250.74609375 861.125 C-250.33262695 859.96919434 -249.91916016 858.81338867 -249.49316406 857.62255859 C-236.88137488 822.08949692 -228.01488305 785.43480717 -224.93359375 747.8125 C-224.86988586 747.03794464 -224.80617798 746.26338928 -224.74053955 745.46536255 C-223.46172894 729.48959221 -223.64959821 713.67634042 -224.55859375 697.6875 C-224.60310669 696.90031586 -224.64761963 696.11313171 -224.69348145 695.30209351 C-227.80092003 641.43778576 -241.67418176 589.0627291 -255.91433716 537.2381897 C-270.57004435 483.88006633 -283.75026066 430.36871483 -288.74609375 375.125 C-288.84180664 374.13701416 -288.93751953 373.14902832 -289.03613281 372.13110352 C-289.91684197 362.19945057 -289.98846669 352.27602564 -289.99609375 342.3125 C-289.99710083 341.39381134 -289.99810791 340.47512268 -289.99914551 339.52859497 C-289.95375538 277.81871867 -276.61314017 213.00252851 -247.77148438 158.09033203 C-246.72747494 156.08931395 -245.71183356 154.07565712 -244.69921875 152.05859375 C-235.83493374 134.60459936 -224.80719127 118.51299414 -212.74609375 103.125 C-211.59367187 101.65160156 -211.59367187 101.65160156 -210.41796875 100.1484375 C-204.54501404 92.81780698 -198.20483916 85.93768096 -191.74609375 79.125 C-191.03453125 78.37089844 -190.32296875 77.61679688 -189.58984375 76.83984375 C-184.36212498 71.4514369 -178.59545746 66.81734672 -172.74609375 62.125 C-171.43125 61.02671875 -171.43125 61.02671875 -170.08984375 59.90625 C-156.53227011 48.58168848 -142.23753668 39.56852051 -126.74609375 31.125 C-126.04758301 30.74069824 -125.34907227 30.35639648 -124.62939453 29.96044922 C-86.50308124 9.18606629 -42.91115995 1.43186352 0 0 Z " fill="#155dfc" transform="translate(740.74609375,71.875)"/>
<path d="M0 0 C3.96 0 7.92 0 12 0 C8.77208445 2.1519437 7.71599191 2.20086443 4 2 C4.33 2.66 4.66 3.32 5 4 C3.35 3.67 1.7 3.34 0 3 C0 2.01 0 1.02 0 0 Z " fill="#181818" transform="translate(911,1123)"/>
<path d="M0 0 C-0.33 2.97 -0.66 5.94 -1 9 C-2.32 7.68 -3.64 6.36 -5 5 C-3.33333333 0 -3.33333333 0 0 0 Z " fill="#070707" transform="translate(1073,1349)"/>
<path d="M0 0 C1.65 0.33 3.3 0.66 5 1 C5 1.99 5 2.98 5 4 C2.69 4.33 0.38 4.66 -2 5 C-1.34 3.35 -0.68 1.7 0 0 Z " fill="#070707" transform="translate(1222,451)"/>
<path d="M0 0 C1.5 1.375 1.5 1.375 3 3 C3 3.66 3 4.32 3 5 C2.01 5.33 1.02 5.66 0 6 C-0.66 4.68 -1.32 3.36 -2 2 C-1.34 1.34 -0.68 0.68 0 0 Z " fill="#060606" transform="translate(1042,313)"/>
</svg>
